<svg width="76" height="78" viewBox="0 0 76 78" fill="none" xmlns="http://www.w3.org/2000/svg">
<path d="M28.38 41.2739L35.4255 48.5001L47.1681 31.6389M65.9562 38.8651C65.9562 42.9375 63.9835 46.541 60.968 48.7185C61.2929 50.6222 61.1657 52.5783 60.5972 54.4209C60.0286 56.2636 59.0355 57.9386 57.702 59.3041C56.3706 60.6719 54.7375 61.6904 52.9409 62.2735C51.1443 62.8566 49.2372 62.9871 47.381 62.6539C46.2983 64.2355 44.8598 65.5263 43.1875 66.4169C41.5152 67.3074 39.6583 67.7716 37.774 67.77C33.8035 67.77 30.2901 65.7467 28.167 62.6539C26.3109 62.9868 24.4038 62.8562 22.6073 62.2731C20.8107 61.69 19.1776 60.6716 17.8461 59.3041C16.5125 57.9386 15.5194 56.2636 14.9509 54.4209C14.3824 52.5783 14.2552 50.6222 14.5801 48.7185C13.0379 47.6079 11.7795 46.1326 10.9111 44.4174C10.0428 42.7023 9.59029 40.7977 9.59182 38.8651C9.59182 34.7927 11.5646 31.1893 14.5801 29.0118C14.2552 27.108 14.3824 25.1519 14.9509 23.3093C15.5194 21.4666 16.5125 19.7916 17.8461 18.4261C19.1776 17.0586 20.8107 16.0402 22.6073 15.4571C24.4038 14.874 26.3109 14.7434 28.167 15.0764C29.25 13.4949 30.6885 12.2043 32.3607 11.3137C34.033 10.4232 35.8898 9.9589 37.774 9.96021C41.7446 9.96021 45.258 11.9836 47.381 15.0764C49.2372 14.7434 51.1443 14.874 52.9408 15.4571C54.7373 16.0402 56.3705 17.0586 57.702 18.4261C59.0353 19.7918 60.0283 21.4668 60.5968 23.3094C61.1653 25.152 61.2926 27.108 60.968 29.0118C62.5101 30.1223 63.7686 31.5976 64.6369 33.3128C65.5052 35.028 65.9578 36.9325 65.9562 38.8651Z" stroke="#21FF52" stroke-width="1.5" stroke-linecap="round" stroke-linejoin="round"/>
</svg>
