<svg width="72" height="72" viewBox="0 0 72 72" fill="none" xmlns="http://www.w3.org/2000/svg">
<path fill-rule="evenodd" clip-rule="evenodd" d="M16.875 4.5C13.767 4.5 11.25 7.02 11.25 10.125V61.875C11.25 64.98 13.77 67.5 16.875 67.5H55.125C58.23 67.5 60.75 64.98 60.75 61.875V38.25C60.75 35.2663 59.5647 32.4048 57.455 30.295C55.3452 28.1853 52.4837 27 49.5 27H43.875C42.3832 27 40.9524 26.4074 39.8975 25.3525C38.8426 24.2976 38.25 22.8668 38.25 21.375V15.75C38.25 12.7663 37.0647 9.90483 34.955 7.79505C32.8452 5.68526 29.9837 4.5 27 4.5H16.875ZM22.5 45C22.5 44.4033 22.7371 43.831 23.159 43.409C23.581 42.9871 24.1533 42.75 24.75 42.75H47.25C47.8467 42.75 48.419 42.9871 48.841 43.409C49.2629 43.831 49.5 44.4033 49.5 45C49.5 45.5967 49.2629 46.169 48.841 46.591C48.419 47.0129 47.8467 47.25 47.25 47.25H24.75C24.1533 47.25 23.581 47.0129 23.159 46.591C22.7371 46.169 22.5 45.5967 22.5 45ZM24.75 51.75C24.1533 51.75 23.581 51.9871 23.159 52.409C22.7371 52.831 22.5 53.4033 22.5 54C22.5 54.5967 22.7371 55.169 23.159 55.591C23.581 56.0129 24.1533 56.25 24.75 56.25H36C36.5967 56.25 37.169 56.0129 37.591 55.591C38.0129 55.169 38.25 54.5967 38.25 54C38.25 53.4033 38.0129 52.831 37.591 52.409C37.169 51.9871 36.5967 51.75 36 51.75H24.75Z" fill="white"/>
<path d="M38.913 5.448C41.3925 8.30689 42.7553 11.9656 42.75 15.75V21.375C42.75 21.996 43.254 22.5 43.875 22.5H49.5C53.2844 22.4947 56.9431 23.8575 59.802 26.337C58.4821 21.3171 55.8526 16.7379 52.1823 13.0677C48.5121 9.39742 43.9329 6.76789 38.913 5.448Z" fill="white"/>
</svg>
