<svg width="72" height="72" viewBox="0 0 72 72" fill="none" xmlns="http://www.w3.org/2000/svg">
<path d="M10.5 60C9.3 60 8.25 59.55 7.35 58.65C6.45 57.75 6 56.7 6 55.5V16.5C6 15.3 6.45 14.25 7.35 13.35C8.25 12.45 9.3 12 10.5 12H61.5C62.7 12 63.75 12.45 64.65 13.35C65.55 14.25 66 15.3 66 16.5V55.5C66 56.7 65.55 57.75 64.65 58.65C63.75 59.55 62.7 60 61.5 60H10.5ZM36 37.35L10.5 20.625V55.5H61.5V20.625L36 37.35ZM36 32.85L61.2 16.5H10.875L36 32.85ZM10.5 20.625V16.5V55.5V20.625Z" fill="white"/>
</svg>
